# xmcd
#
# Track frame offsets:
#	150
#	12518
#	25133
#	39030
#	52928
#	69095
#	85645
#	101419
#	114160
#	125162
#	142834
#	156650
#	172660
#	187016
#	202105
#	217971
#	233221
#	241960
#
# Disc length: 3441 seconds
#
# Revision: 1
# Processed by: cddbd v1.4PL0 Copyright (c) Steve Scherf et al.
# Submitted via: audiograbber 1.80.04
#
DISCID=e30d6f12
DTITLE=John Brack - Gold - Es Praliné [CD 1)
DYEAR=1900
DGENRE=Country
TTITLE0=Es Praliné (Jambalaya)
TTITLE1=Why Couldn't You Talk
TTITLE2=Good Morning Country
TTITLE3=I Can't Stand It Anymore 
TTITLE4=Pick Up The Phone
TTITLE5=Grandma
TTITLE6=We Love The Same Girl
TTITLE7=Tragic Love
TTITLE8=Oh Lonesome Me
TTITLE9=Looking For Love
TTITLE10=I'll Be Free
TTITLE11=Disco Girl (...Western Sound Is In)
TTITLE12=Wrong Number
TTITLE13=Cause You Still Love Me
TTITLE14=Another Sad Story
TTITLE15=Tulsa Time
TTITLE16=Oh Susanna
TTITLE17=Red River Valley
EXTD=
EXTT0=
EXTT1=
EXTT2=
EXTT3=
EXTT4=
EXTT5=
EXTT6=
EXTT7=
EXTT8=
EXTT9=
EXTT10=
EXTT11=
EXTT12=
EXTT13=
EXTT14=
EXTT15=
EXTT16=
EXTT17=
PLAYORDER=
